<svg role="img" aria-label="Easy Composites" xmlns="http://www.w3.org/2000/svg" xmlns:xlink="http://www.w3.org/1999/xlink" version="1.1" width="657" height="245" viewBox="22.8 24.4 328.3 122.3">
<defs>
<clipPath id="clip_1">
<path transform="matrix(1,0,0,-1,0,170.079)" d="M0 170.079H368.504V0H0Z"/>
</clipPath>
</defs>
<g>
<path transform="matrix(1,0,0,-1,179.8906,89.787998)" d="M0 0-5.936-5.945-27.596 15.68-21.658 21.626Z" fill="#ffffff"/>
<path transform="matrix(1,0,0,-1,187.8438,81.820697)" d="M0 0-5.937-5.945-27.595 15.677-21.658 21.623Z" fill="#ffffff"/>
<path transform="matrix(1,0,0,-1,195.6221,74.03459)" d="M0 0-5.937-5.943-27.595 15.681-21.659 21.627Z" fill="#ffffff"/>
<path transform="matrix(1,0,0,-1,213.6631,44.115594)" d="M0 0 5.945-5.937-15.679-27.596-21.626-21.659Z" fill="#d12427"/>
<path transform="matrix(1,0,0,-1,205.6963,36.1644)" d="M0 0 5.946-5.935-15.677-27.592-21.625-21.654Z" fill="#d12427"/>
<path transform="matrix(1,0,0,-1,197.9102,28.384202)" d="M0 0 5.941-5.937-15.684-27.596-21.627-21.661Z" fill="#d12427"/>
<g clip-path="url(#clip_1)">
<path transform="matrix(1,0,0,-1,35.126,114.65419)" d="M0 0H5.404V.149C5.471 .88 5.504 1.395 5.504 1.693 5.504 3.104 5.275 4.146 4.819 4.818 4.362 5.491 3.652 5.827 2.69 5.827 1.71 5.827 1.009 5.499 .585 4.844 .162 4.188-.05 3.104-.05 1.594-.05 1.179-.046 .854-.037 .622-.029 .39-.017 .183 0 0M5.205-8.193H12.751V-8.916C12.751-12.286 11.871-14.822 10.111-16.524 8.351-18.227 5.728-19.077 2.242-19.077 .481-19.077-1.112-18.828-2.54-18.33-3.968-17.831-5.08-17.143-5.877-16.263-6.773-15.25-7.413-13.905-7.795-12.229-8.177-10.552-8.368-7.87-8.368-4.184-8.368-.116-8.172 2.723-7.782 4.333-7.393 5.943-6.724 7.271-5.777 8.317-4.865 9.297-3.707 10.036-2.303 10.534-.9 11.032 .73 11.281 2.59 11.281 4.483 11.281 6.118 11.012 7.497 10.472 8.874 9.933 9.995 9.131 10.858 8.068 11.589 7.172 12.112 6.102 12.427 4.856 12.743 3.611 12.9 1.485 12.9-1.52V-4.981H-.199C-.216-5.064-.224-5.172-.224-5.305-.291-6.517-.324-7.363-.324-7.845-.324-9.871-.108-11.278 .324-12.066 .755-12.854 1.495-13.249 2.541-13.249 3.453-13.249 4.143-12.946 4.607-12.34 5.072-11.734 5.305-10.817 5.305-9.588 5.305-9.339 5.28-8.957 5.23-8.442 5.213-8.343 5.205-8.26 5.205-8.193" fill="#ffffff"/>
<path transform="matrix(1,0,0,-1,64.7632,119.0878)" d="M0 0C-2.076-.581-3.59-1.303-4.545-2.166-5.5-3.029-5.977-4.108-5.977-5.403-5.977-6.317-5.74-7.048-5.267-7.596-4.794-8.144-4.159-8.417-3.362-8.417-2.183-8.417-1.328-8.019-.797-7.222-.266-6.425 0-5.089 0-3.212ZM1.021-13.871 .548-11.231C-.465-12.294-1.573-13.095-2.777-13.635-3.98-14.174-5.288-14.444-6.699-14.444-8.957-14.444-10.746-13.714-12.066-12.252-13.386-10.792-14.046-8.815-14.046-6.325-14.046-4.15-13.485-2.357-12.365-.946-11.244 .465-9.405 1.686-6.849 2.715-6.234 2.947-5.404 3.254-4.358 3.637-1.353 4.732 .149 5.969 .149 7.348 .149 8.194-.066 8.837-.498 9.277-.93 9.717-1.553 9.938-2.366 9.938-3.346 9.938-4.072 9.643-4.545 9.053-5.018 8.464-5.255 7.555-5.255 6.326V6.127H-13.324C-13.324 9.381-12.419 11.801-10.609 13.387-8.8 14.972-6.052 15.765-2.366 15.765-.706 15.765 .776 15.611 2.08 15.304 3.383 14.997 4.474 14.553 5.354 13.972 6.483 13.208 7.276 12.286 7.733 11.207 8.189 10.128 8.417 8.16 8.417 5.305V4.434-5.802C8.417-8.061 8.496-9.783 8.654-10.97 8.812-12.157 9.073-13.124 9.439-13.871Z" fill="#ffffff"/>
<path transform="matrix(1,0,0,-1,75.7222,123.8192)" d="M0 0 7.197-.024C7.28-1.519 7.571-2.611 8.069-3.3 8.567-3.989 9.314-4.333 10.311-4.333 11.107-4.333 11.763-4.097 12.278-3.623 12.792-3.15 13.05-2.54 13.05-1.793 13.05-1.146 12.871-.61 12.514-.187 12.157 .236 11.365 .738 10.136 1.32 9.87 1.453 9.455 1.652 8.891 1.918 5.985 3.263 3.96 4.524 2.814 5.703 2 6.5 1.378 7.43 .946 8.492 .515 9.555 .299 10.667 .299 11.83 .299 14.453 1.191 16.545 2.976 18.105 4.761 19.666 7.172 20.446 10.211 20.446 13.365 20.446 15.793 19.695 17.495 18.192 19.197 16.689 20.048 14.535 20.048 11.729V11.207L13 11.231C12.966 12.677 12.747 13.706 12.34 14.32 11.933 14.934 11.273 15.241 10.36 15.241 9.546 15.241 8.899 15.021 8.417 14.581 7.936 14.142 7.695 13.564 7.695 12.851 7.695 11.589 8.899 10.427 11.307 9.364 11.639 9.215 11.896 9.099 12.079 9.016 15.366 7.537 17.565 6.102 18.678 4.707 19.79 3.313 20.347 1.485 20.347-.771 20.347-3.678 19.45-5.927 17.657-7.521 15.864-9.114 13.307-9.912 9.987-9.912 6.832-9.912 4.379-9.106 2.627-7.496 .875-5.886 0-3.628 0-.722Z" fill="#ffffff"/>
<path transform="matrix(1,0,0,-1,96.5181,104.144397)" d="M0 0H7.969L10.784-18.554 13.623 0H21.592L15.864-26.474C14.768-31.554 13.539-34.829 12.178-36.298 10.816-37.768 8.65-38.502 5.678-38.502 5.246-38.502 4.761-38.478 4.221-38.428 3.682-38.378 3.063-38.303 2.366-38.203V-32.177C2.399-32.177 2.449-32.185 2.515-32.201 3.08-32.251 3.487-32.276 3.736-32.276 4.648-32.276 5.325-32.105 5.765-31.766 6.205-31.425 6.425-30.897 6.425-30.185 6.425-29.736 6.259-28.748 5.927-27.221 5.811-26.689 5.728-26.283 5.678-26Z" fill="#ffffff"/>
<path transform="matrix(1,0,0,-1,132.5303,121.62779)" d="M0 0H7.919C7.919-.149 7.928-.345 7.944-.585 7.961-.826 7.969-1.005 7.969-1.12 7.969-4.807 7.114-7.558 5.404-9.376 3.694-11.194 1.096-12.104-2.391-12.104-6.326-12.104-9.094-10.986-10.696-8.754-12.299-6.521-13.1-2.582-13.1 3.063-13.1 8.708-12.294 12.651-10.684 14.893-9.074 17.135-6.309 18.255-2.391 18.255 1.129 18.255 3.719 17.354 5.379 15.553 7.04 13.751 7.87 10.941 7.87 7.123V6.625H.1V7.446C.1 9.173-.087 10.401-.46 11.133-.834 11.863-1.461 12.229-2.341 12.229-3.354 12.229-4.039 11.738-4.396 10.759-4.753 9.779-4.931 7.214-4.931 3.063-4.931-.921-4.753-3.457-4.396-4.545-4.039-5.632-3.371-6.176-2.391-6.176-1.544-6.176-.926-5.79-.535-5.018-.146-4.246 .05-3.021 .05-1.345 .05-1.212 .042-.996 .025-.697 .008-.398 0-.166 0 0" fill="#d12427"/>
<path transform="matrix(1,0,0,-1,151.7817,118.56439)" d="M0 0C0-4.051 .178-6.587 .536-7.608 .893-8.629 1.561-9.14 2.541-9.14 3.52-9.14 4.188-8.65 4.545-7.671 4.902-6.691 5.081-4.134 5.081 0 5.081 4.134 4.902 6.695 4.545 7.683 4.188 8.671 3.52 9.165 2.541 9.165 1.561 9.165 .893 8.65 .536 7.621 .178 6.591 0 4.051 0 0M-8.168 0C-8.168 5.611-7.363 9.547-5.752 11.805-4.143 14.063-1.378 15.191 2.541 15.191 6.458 15.191 9.223 14.071 10.833 11.829 12.444 9.588 13.249 5.645 13.249 0 13.249-5.612 12.444-9.543 10.833-11.792 9.223-14.042 6.458-15.167 2.541-15.167-1.395-15.167-4.163-14.05-5.765-11.817-7.368-9.584-8.168-5.646-8.168 0" fill="#d12427"/>
<path transform="matrix(1,0,0,-1,168.7178,132.9589)" d="M0 0V28.814H7.123V25.402C7.986 26.78 8.949 27.789 10.012 28.428 11.074 29.067 12.328 29.387 13.772 29.387 15.083 29.387 16.217 29.046 17.171 28.366 18.126 27.685 18.86 26.697 19.376 25.402 20.239 26.764 21.214 27.768 22.302 28.416 23.39 29.063 24.639 29.387 26.05 29.387 28.191 29.387 29.756 28.647 30.744 27.17 31.731 25.692 32.227 23.335 32.227 20.098V0H24.53V18.255C24.53 20.313 24.386 21.612 24.095 22.152 23.804 22.691 23.302 22.962 22.589 22.962 21.725 22.962 21.048 22.521 20.559 21.642 20.069 20.762 19.823 19.55 19.823 18.006V0H12.278V18.255C12.278 20.313 12.137 21.612 11.854 22.152 11.572 22.691 11.066 22.962 10.335 22.962 9.489 22.962 8.82 22.521 8.331 21.642 7.841 20.762 7.596 19.55 7.596 18.006V0Z" fill="#d12427"/>
<path transform="matrix(1,0,0,-1,215.6875,126.932498)" d="M0 0C1.047 0 1.765 .598 2.154 1.794 2.545 2.989 2.74 5.753 2.74 10.087 2.74 12.693 2.549 14.478 2.167 15.441 1.785 16.403 1.129 16.886 .199 16.886-.863 16.886-1.598 16.329-2.004 15.217-2.411 14.104-2.614 11.174-2.614 6.426-2.614 3.985-2.42 2.304-2.029 1.383-1.64 .461-.963 0 0 0M-10.459-15.714V22.788H-3.063V19.525C-2.315 20.82-1.391 21.8-.286 22.464 .818 23.128 2.051 23.46 3.412 23.46 4.541 23.46 5.57 23.261 6.5 22.862 7.43 22.464 8.202 21.899 8.816 21.169 9.53 20.272 10.032 19.072 10.323 17.57 10.613 16.067 10.759 13.249 10.759 9.115 10.759 2.557 10.215-1.743 9.128-3.785 8.04-5.827 6.085-6.849 3.263-6.849 2.051-6.849 .979-6.57 .05-6.014-.88-5.458-1.718-4.615-2.465-3.486V-15.714Z" fill="#d12427"/>
<path transform="matrix(1,0,0,-1,237.5303,118.56439)" d="M0 0C0-4.051 .178-6.587 .535-7.608 .892-8.629 1.561-9.14 2.54-9.14 3.52-9.14 4.188-8.65 4.545-7.671 4.901-6.691 5.08-4.134 5.08 0 5.08 4.134 4.901 6.695 4.545 7.683 4.188 8.671 3.52 9.165 2.54 9.165 1.561 9.165 .892 8.65 .535 7.621 .178 6.591 0 4.051 0 0M-8.169 0C-8.169 5.611-7.363 9.547-5.753 11.805-4.143 14.063-1.379 15.191 2.54 15.191 6.458 15.191 9.223 14.071 10.833 11.829 12.443 9.588 13.249 5.645 13.249 0 13.249-5.612 12.443-9.543 10.833-11.792 9.223-14.042 6.458-15.167 2.54-15.167-1.395-15.167-4.163-14.05-5.766-11.817-7.368-9.584-8.169-5.646-8.169 0" fill="#d12427"/>
<path transform="matrix(1,0,0,-1,252.7227,123.8192)" d="M0 0 7.197-.024C7.279-1.519 7.57-2.611 8.068-3.3 8.566-3.989 9.313-4.333 10.31-4.333 11.106-4.333 11.763-4.097 12.277-3.623 12.792-3.15 13.05-2.54 13.05-1.793 13.05-1.146 12.871-.61 12.514-.187 12.156 .236 11.364 .738 10.136 1.32 9.87 1.453 9.454 1.652 8.891 1.918 5.984 3.263 3.959 4.524 2.813 5.703 2 6.5 1.378 7.43 .946 8.492 .514 9.555 .299 10.667 .299 11.83 .299 14.453 1.19 16.545 2.976 18.105 4.76 19.666 7.172 20.446 10.21 20.446 13.364 20.446 15.793 19.695 17.495 18.192 19.196 16.689 20.048 14.535 20.048 11.729V11.207L13 11.231C12.966 12.677 12.746 13.706 12.34 14.32 11.933 14.934 11.272 15.241 10.359 15.241 9.546 15.241 8.898 15.021 8.417 14.581 7.936 14.142 7.695 13.564 7.695 12.851 7.695 11.589 8.898 10.427 11.306 9.364 11.638 9.215 11.896 9.099 12.078 9.016 15.365 7.537 17.565 6.102 18.678 4.707 19.79 3.313 20.347 1.485 20.347-.771 20.347-3.678 19.449-5.927 17.656-7.521 15.863-9.114 13.307-9.912 9.986-9.912 6.831-9.912 4.379-9.106 2.627-7.496 .875-5.886 0-3.628 0-.722Z" fill="#d12427"/>
<path transform="matrix(1,0,0,-1,0,170.079)" d="M275.834 65.935H283.828V37.121H275.834ZM275.834 75.771H283.828V68.797008H275.834Z" fill="#d12427"/>
<path transform="matrix(1,0,0,-1,301.2373,132.8593)" d="M0 0C-.98-.183-1.835-.319-2.565-.411-3.296-.502-3.919-.548-4.434-.548-6.027-.548-7.385-.29-8.505 .225-9.626 .738-10.452 1.478-10.983 2.44-11.332 3.104-11.577 3.938-11.718 4.943-11.859 5.948-11.93 7.479-11.93 9.538V13.1 22.763H-15.042V28.715H-11.93V36.684H-3.836V28.715H0V22.763H-3.836V11.008C-3.836 8.5-3.653 6.956-3.288 6.375-2.923 5.794-2.217 5.504-1.171 5.504-.988 5.504-.689 5.528-.274 5.578-.158 5.595-.067 5.604 0 5.604Z" fill="#d12427"/>
<path transform="matrix(1,0,0,-1,311.7471,114.65419)" d="M0 0H5.404V.149C5.47 .88 5.504 1.395 5.504 1.693 5.504 3.104 5.275 4.146 4.818 4.818 4.362 5.491 3.652 5.827 2.689 5.827 1.71 5.827 1.009 5.499 .585 4.844 .162 4.188-.05 3.104-.05 1.594-.05 1.179-.046 .854-.038 .622-.029 .39-.017 .183 0 0M5.205-8.193H12.751V-8.916C12.751-12.286 11.87-14.822 10.11-16.524 8.351-18.227 5.728-19.077 2.241-19.077 .481-19.077-1.112-18.828-2.54-18.33-3.969-17.831-5.081-17.143-5.878-16.263-6.774-15.25-7.413-13.905-7.795-12.229-8.178-10.552-8.368-7.87-8.368-4.184-8.368-.116-8.173 2.723-7.783 4.333-7.393 5.943-6.725 7.271-5.778 8.317-4.865 9.297-3.707 10.036-2.304 10.534-.901 11.032 .73 11.281 2.59 11.281 4.482 11.281 6.117 11.012 7.496 10.472 8.874 9.933 9.994 9.131 10.858 8.068 11.588 7.172 12.111 6.102 12.427 4.856 12.742 3.611 12.9 1.485 12.9-1.52V-4.981H-.199C-.216-5.064-.225-5.172-.225-5.305-.291-6.517-.324-7.363-.324-7.845-.324-9.871-.108-11.278 .323-12.066 .755-12.854 1.494-13.249 2.54-13.249 3.453-13.249 4.142-12.946 4.607-12.34 5.071-11.734 5.305-10.817 5.305-9.588 5.305-9.339 5.279-8.957 5.229-8.442 5.213-8.343 5.205-8.26 5.205-8.193" fill="#d12427"/>
<path transform="matrix(1,0,0,-1,326.7412,123.8192)" d="M0 0 7.197-.024C7.279-1.519 7.57-2.611 8.068-3.3 8.566-3.989 9.313-4.333 10.31-4.333 11.106-4.333 11.763-4.097 12.277-3.623 12.792-3.15 13.05-2.54 13.05-1.793 13.05-1.146 12.871-.61 12.514-.187 12.156 .236 11.364 .738 10.136 1.32 9.87 1.453 9.454 1.652 8.891 1.918 5.984 3.263 3.959 4.524 2.813 5.703 2 6.5 1.378 7.43 .946 8.492 .514 9.555 .299 10.667 .299 11.83 .299 14.453 1.19 16.545 2.976 18.105 4.76 19.666 7.172 20.446 10.21 20.446 13.364 20.446 15.793 19.695 17.495 18.192 19.196 16.689 20.048 14.535 20.048 11.729V11.207L13 11.231C12.966 12.677 12.746 13.706 12.34 14.32 11.933 14.934 11.272 15.241 10.359 15.241 9.546 15.241 8.898 15.021 8.417 14.581 7.936 14.142 7.695 13.564 7.695 12.851 7.695 11.589 8.898 10.427 11.306 9.364 11.638 9.215 11.896 9.099 12.078 9.016 15.365 7.537 17.565 6.102 18.678 4.707 19.79 3.313 20.347 1.485 20.347-.771 20.347-3.678 19.449-5.927 17.656-7.521 15.863-9.114 13.307-9.912 9.986-9.912 6.831-9.912 4.379-9.106 2.627-7.496 .875-5.886 0-3.628 0-.722Z" fill="#d12427"/>
</g>
</g>
</svg>
